<svg width="19" height="15" fill="none" xmlns="http://www.w3.org/2000/svg"><path d="M17.237 6.625V2.393c0-.932-.759-1.691-1.692-1.691H3.455c-.933 0-1.692.759-1.692 1.691v4.232A2.407 2.407 0 0 0 0 8.94v3.215c0 .312.253.564.564.564h1.199v1.015a.564.564 0 0 0 1.128 0V12.72h13.218v1.015a.564.564 0 0 0 1.128 0V12.72h1.199a.564.564 0 0 0 .564-.564V8.94a2.407 2.407 0 0 0-1.763-2.315ZM2.891 2.393c0-.31.253-.563.564-.563h12.09c.311 0 .564.253.564.563v4.144h-1.322V5.405c0-.984-.8-1.785-1.785-1.785h-2.28c-.473 0-.902.184-1.222.484-.32-.3-.75-.484-1.221-.484h-2.28c-.985 0-1.786.8-1.786 1.785v1.132H2.89V2.393Zm10.768 3.012v1.132h-3.595V5.405c0-.362.295-.657.658-.657h2.28c.362 0 .657.295.657.657Zm-4.723 0v1.132H5.34V5.405c0-.362.295-.657.657-.657h2.28c.363 0 .658.295.658.657Zm8.936 6.186H1.128v-2.65c0-.704.572-1.276 1.275-1.276h14.194c.703 0 1.275.572 1.275 1.275v2.651Z" fill="#696969"/></svg>