<svg width="19" height="15" fill="none" xmlns="http://www.w3.org/2000/svg"><path d="m18.273 5.612-.414-.438-1.453-3.918A1.705 1.705 0 0 0 14.818.152H4.438c-.707 0-1.34.442-1.588 1.104L1.417 5.125l-.597.552A2.333 2.333 0 0 0 0 7.451v5.708a1.697 1.697 0 0 0 1.697 1.69h1.072c.934 0 1.693-.756 1.697-1.69v-.828h10.068v.828a1.697 1.697 0 0 0 1.697 1.69h1.072c.934 0 1.693-.756 1.697-1.69V7.301a2.354 2.354 0 0 0-.727-1.689Zm-14.66-4.08a.878.878 0 0 1 .824-.568h10.385c.366 0 .695.227.825.568l1.266 3.41h-.946a2.78 2.78 0 0 0-3.162-2.346 2.782 2.782 0 0 0-2.347 2.346H2.347l1.266-3.41Zm11.526 3.41h-3.86a1.974 1.974 0 0 1 2.338-1.526c.763.162 1.36.759 1.522 1.526ZM3.654 13.16a.883.883 0 0 1-.885.877H1.697a.883.883 0 0 1-.885-.877v-1.063c.244.158.564.235.885.235h1.957v.828Zm14.534 0a.883.883 0 0 1-.885.877h-1.072a.885.885 0 0 1-.885-.877v-.828h1.957c.32 0 .641-.077.885-.235v1.063Zm-.885-1.64H1.697a.876.876 0 0 1-.885-.869V7.451c0-.446.199-.873.54-1.16l.016-.017.552-.52h15.375l.39.418c.004.009.016.013.02.02.304.289.479.69.479 1.11v3.348h.004a.878.878 0 0 1-.885.87Z" fill="#696969"/></svg>