<svg width="20" height="15" fill="none" xmlns="http://www.w3.org/2000/svg"><path d="M19.8 5.164 13.086.101a.501.501 0 0 0-.604 0l-1.104.833L10.274.1a.502.502 0 0 0-.604 0L8.594.913 7.518.1a.501.501 0 0 0-.604 0L.199 5.164a.502.502 0 0 0-.199.4v8.526c0 .277.225.501.502.501H19.498A.502.502 0 0 0 20 14.09V5.565a.502.502 0 0 0-.2-.4Zm-.803 8.424h-1.808V5.565a.502.502 0 0 0-.2-.4l-4.778-3.603.573-.432 6.213 4.685v7.773Zm-4.565 0V5.565a.502.502 0 0 0-.2-.4L9.428 1.54l.546-.411 6.212 4.685v7.773h-1.753Zm-6.395 0H6.395V9.951h1.642v3.637Zm1.003 0V9.45a.502.502 0 0 0-.501-.502H5.893a.502.502 0 0 0-.502.502v4.138H1.003V5.815L7.216 1.13l6.213 4.685v7.773H9.04Z" fill="#0061DF"/></svg>