<svg width="14" height="13" fill="none" xmlns="http://www.w3.org/2000/svg"><path d="M7.125 3.296A3.145 3.145 0 0 0 3.98 6.44a3.128 3.128 0 0 0 3.145 3.145A3.145 3.145 0 0 0 10.27 6.44a3.163 3.163 0 0 0-3.145-3.144Zm0 5.195a2.048 2.048 0 0 1-2.05-2.05c0-1.122.902-2.024 2.05-2.024 1.121 0 2.023.902 2.023 2.023 0 1.149-.902 2.051-2.023 2.051Zm3.992-5.304a.735.735 0 0 0-.738-.739.735.735 0 0 0-.738.739c0 .41.328.738.738.738s.738-.328.738-.738Zm2.078.738c-.054-.985-.273-1.86-.984-2.57C11.5.643 10.625.424 9.64.37 8.629.315 5.594.315 4.582.37c-.984.055-1.832.274-2.57.984-.711.711-.93 1.586-.985 2.57-.054 1.013-.054 4.048 0 5.06.055.984.274 1.831.985 2.57.738.71 1.586.93 2.57.984 1.012.055 4.047.055 5.059 0 .984-.055 1.859-.273 2.57-.984.71-.739.93-1.586.984-2.57.055-1.012.055-4.047 0-5.06Zm-1.312 6.125c-.192.547-.63.957-1.149 1.176-.82.328-2.734.246-3.609.246-.902 0-2.816.082-3.61-.246A2.073 2.073 0 0 1 2.34 10.05c-.328-.793-.246-2.707-.246-3.61 0-.875-.082-2.789.246-3.609a2.11 2.11 0 0 1 1.176-1.148c.793-.329 2.707-.246 3.609-.246.875 0 2.79-.083 3.61.246.519.191.93.629 1.148 1.148.328.82.246 2.734.246 3.61 0 .902.082 2.816-.246 3.609Z" fill="#fff"/></svg>