<svg width="15" height="15" fill="none" xmlns="http://www.w3.org/2000/svg"><path d="M13.757 2.365c-1.63-1.552-4.286-1.552-5.918 0l-.339.322-.339-.322C5.53.813 2.874.813 1.243 2.365.44 3.127 0 4.138 0 5.211c0 1.074.441 2.085 1.243 2.847l5.895 5.597a.524.524 0 0 0 .724 0l5.895-5.597C14.56 7.296 15 6.285 15 5.212c0-1.074-.441-2.084-1.243-2.847Zm-.725 4.93L7.5 12.547 1.968 7.295a2.861 2.861 0 0 1-.915-2.083c0-.783.325-1.523.915-2.084a3.232 3.232 0 0 1 2.234-.879c.809 0 1.618.293 2.234.88l.701.666a.526.526 0 0 0 .725 0l.702-.667c1.232-1.172 3.236-1.172 4.468 0 .59.561.915 1.301.915 2.084 0 .782-.325 1.521-.915 2.083Z" fill="#696969"/></svg>