<svg width="123" height="44" viewBox="0 0 123 44" fill="none" xmlns="http://www.w3.org/2000/svg">
<g filter="url(#filter0_d_0_3778)">
<path d="M54.4561 10.7705H57.2383V23.9999H54.4561V18.5616H48.7896V23.9999H46.0073V10.7705H48.7896V16.1721H54.4561V10.7705Z" fill="white"/>
<path d="M64.7504 24.183C63.7365 24.183 62.8369 23.9907 62.0516 23.6062C61.2664 23.2217 60.6482 22.6571 60.1968 21.9125C59.7517 21.1678 59.5291 20.292 59.5291 19.2849C59.5291 17.7773 60.0113 16.5872 60.9758 15.7144C61.9404 14.8416 63.1986 14.4052 64.7504 14.4052C66.3085 14.4052 67.5698 14.8416 68.5343 15.7144C69.4988 16.5872 69.9811 17.7773 69.9811 19.2849C69.9811 20.7986 69.4988 21.9949 68.5343 22.8738C67.5698 23.7466 66.3085 24.183 64.7504 24.183ZM64.7226 22.0864C65.5016 22.0864 66.1292 21.8301 66.6053 21.3174C67.0875 20.8047 67.3287 20.1272 67.3287 19.2849C67.3287 18.4426 67.0875 17.7651 66.6053 17.2524C66.1292 16.7397 65.5016 16.4834 64.7226 16.4834C63.9745 16.4834 63.3624 16.7428 62.8863 17.2616C62.4164 17.7743 62.1815 18.4487 62.1815 19.2849C62.1815 20.1211 62.4164 20.7986 62.8863 21.3174C63.3624 21.8301 63.9745 22.0864 64.7226 22.0864Z" fill="white"/>
<path d="M78.2907 14.5883H80.9617V23.9999H78.4298L78.3649 22.8646C77.6601 23.7435 76.6492 24.183 75.3323 24.183C74.1884 24.183 73.3105 23.9022 72.6984 23.3407C72.0863 22.7731 71.7803 21.9674 71.7803 20.9237V14.5883H74.4605V20.3561C74.4605 20.942 74.6182 21.3723 74.9335 21.647C75.255 21.9216 75.6692 22.059 76.1762 22.059C76.7945 22.059 77.2984 21.882 77.6879 21.528C78.0836 21.1678 78.2845 20.585 78.2907 19.7793V14.5883Z" fill="white"/>
<path d="M90.6903 14.5883L86.4984 21.9674H90.5605V23.9999H82.7052L86.8786 16.6207H83.0298V14.5883H90.6903Z" fill="white"/>
<path d="M93.8899 13.1783C93.4633 13.1783 93.0985 13.0319 92.7955 12.7389C92.4926 12.4398 92.3411 12.0797 92.3411 11.6586C92.3411 11.2435 92.4926 10.8895 92.7955 10.5966C93.1047 10.2975 93.4695 10.1479 93.8899 10.1479C94.3041 10.1479 94.6627 10.2975 94.9657 10.5966C95.2686 10.8895 95.4201 11.2435 95.4201 11.6586C95.4201 12.0797 95.2686 12.4398 94.9657 12.7389C94.6627 13.0319 94.3041 13.1783 93.8899 13.1783ZM92.5266 23.9999V14.5883H95.2161V23.9999H92.5266Z" fill="white"/>
<path d="M103.609 14.4052C104.753 14.4052 105.631 14.689 106.243 15.2566C106.855 15.8181 107.161 16.6207 107.161 17.6644V23.9999H104.481V18.2321C104.481 17.64 104.32 17.2067 103.999 16.932C103.683 16.6573 103.275 16.52 102.775 16.52C102.484 16.52 102.218 16.5597 101.977 16.639C101.736 16.7184 101.513 16.8435 101.309 17.0144C101.105 17.1792 100.944 17.4142 100.827 17.7194C100.716 18.0245 100.657 18.3877 100.651 18.8088V23.9999H97.9798V14.5883H100.651V15.632C101.356 14.8141 102.342 14.4052 103.609 14.4052Z" fill="white"/>
<path d="M116.324 14.5883H118.865V23.2949C118.865 24.1921 118.745 24.9734 118.504 25.6387C118.269 26.304 117.925 26.838 117.474 27.2408C117.023 27.6498 116.494 27.9519 115.888 28.1472C115.282 28.3425 114.59 28.4402 113.811 28.4402C111.294 28.4402 109.656 27.4667 108.896 25.5197L111.112 24.5858C111.384 25.2023 111.727 25.657 112.141 25.95C112.556 26.2429 113.078 26.3894 113.709 26.3894C115.36 26.3894 116.185 25.422 116.185 23.4872V22.3885C115.901 22.7731 115.499 23.0844 114.979 23.3224C114.466 23.5543 113.904 23.6703 113.291 23.6703C112.704 23.6703 112.145 23.5604 111.613 23.3407C111.087 23.1149 110.627 22.8036 110.231 22.4069C109.835 22.004 109.52 21.5096 109.285 20.9237C109.056 20.3378 108.942 19.703 108.942 19.0194C108.942 18.3297 109.056 17.6949 109.285 17.1151C109.52 16.5292 109.835 16.0409 110.231 15.6503C110.633 15.2596 111.097 14.9545 111.622 14.7347C112.154 14.515 112.716 14.4052 113.31 14.4052C113.965 14.4052 114.553 14.5364 115.072 14.7988C115.598 15.0552 115.993 15.4 116.259 15.8334L116.324 14.5883ZM112.225 20.8138C112.701 21.296 113.285 21.5371 113.978 21.5371C114.67 21.5371 115.254 21.293 115.731 20.8047C116.207 20.3164 116.445 19.7213 116.445 19.0194C116.445 18.3114 116.207 17.7133 115.731 17.225C115.261 16.7367 114.676 16.4926 113.978 16.4926C113.273 16.4926 112.686 16.7336 112.216 17.2158C111.752 17.6919 111.52 18.2931 111.52 19.0194C111.52 19.7335 111.755 20.3317 112.225 20.8138Z" fill="white"/>
<path d="M11.322 17.7038V10.4231L19.1946 5.96333C21.8217 7.44993 24.443 8.93653 27.0672 10.4231V21.6982H12.9489H5.63392C5.36661 21.1001 5.09356 20.5106 4.87224 19.8984C3.96398 17.385 3.76566 14.6827 4.2744 12.0846C4.82626 9.25247 6.22026 6.55289 8.45068 4.36671C11.4198 1.45557 15.3086 0 19.1946 0C23.0863 0 26.9752 1.45557 29.9385 4.36671C32.9047 7.28068 34.3879 11.0973 34.3879 14.9111C34.3879 18.7278 32.9047 22.5473 29.9385 25.4556L19.1946 36L8.45068 25.4584C7.99655 25.0127 7.56541 24.5331 7.17164 24.0339H10.3592L19.1946 32.708L28.2628 23.8082C30.7634 21.354 32.0166 18.1298 32.0166 14.9111C32.0166 11.6925 30.7634 8.47109 28.2628 6.0141C25.7594 3.5543 22.4741 2.32722 19.1946 2.32722C15.9151 2.32722 12.6327 3.55712 10.1292 6.01128C8.24373 7.86178 7.07104 10.1354 6.60541 12.5162C6.15703 14.7955 6.35823 17.1678 7.20038 19.3625H24.693V11.7602C22.8564 10.7193 21.0255 9.68124 19.1946 8.64316L13.699 11.7602V17.7094H11.322V17.7038Z" fill="white"/>
</g>
<defs>
<filter id="filter0_d_0_3778" x="0" y="0" width="125" height="44" filterUnits="userSpaceOnUse" color-interpolation-filters="sRGB">
<feFlood flood-opacity="0" result="BackgroundImageFix"/>
<feColorMatrix in="SourceAlpha" type="matrix" values="0 0 0 0 0 0 0 0 0 0 0 0 0 0 0 0 0 0 127 0" result="hardAlpha"/>
<feOffset dy="4"/>
<feGaussianBlur stdDeviation="2"/>
<feComposite in2="hardAlpha" operator="out"/>
<feColorMatrix type="matrix" values="0 0 0 0 0 0 0 0 0 0 0 0 0 0 0 0 0 0 0.25 0"/>
<feBlend mode="normal" in2="BackgroundImageFix" result="effect1_dropShadow_0_3778"/>
<feBlend mode="normal" in="SourceGraphic" in2="effect1_dropShadow_0_3778" result="shape"/>
</filter>
</defs>
</svg>
