<svg width="18" height="18" fill="none" xmlns="http://www.w3.org/2000/svg"><path d="M9 3.87a3.346 3.346 0 0 0-3.342 3.34c0 1.843 1.5 3.343 3.342 3.343s3.342-1.5 3.342-3.342A3.345 3.345 0 0 0 9 3.869Zm0 5.276A1.937 1.937 0 0 1 7.065 7.21c0-1.067.868-1.935 1.935-1.935 1.067 0 1.935.868 1.935 1.935A1.937 1.937 0 0 1 9 9.146Z" fill="#fff"/><path d="M9 0C5.024 0 1.79 3.235 1.79 7.211v.2c0 2.01 1.152 4.354 3.426 6.964a29.628 29.628 0 0 0 3.342 3.268L9 18l.442-.357a29.643 29.643 0 0 0 3.342-3.268c2.274-2.61 3.427-4.954 3.427-6.965v-.199C16.211 3.235 12.976 0 9.001 0Zm5.804 7.41c0 3.399-4.379 7.513-5.804 8.762-1.426-1.25-5.804-5.363-5.804-8.762v-.199A5.81 5.81 0 0 1 9 1.407a5.81 5.81 0 0 1 5.804 5.804v.2Z" fill="#fff"/></svg>
