<svg width="17" height="17" fill="none" xmlns="http://www.w3.org/2000/svg"><path d="M16.149.147.147 16.148A.5.5 0 0 0 .5 17h16.002a.499.499 0 0 0 .499-.499V.5a.5.5 0 0 0-.852-.353Zm-.146 15.855H1.705l2.538-2.538.695.695a.5.5 0 0 0 .706-.706l-.696-.694 1.424-1.424.695.695a.5.5 0 0 0 .706-.706l-.695-.694L8.5 9.206l.695.695a.5.5 0 0 0 .706-.706l-.695-.694 1.423-1.424.695.695a.5.5 0 0 0 .706-.706l-.695-.695 1.423-1.423.695.695a.5.5 0 0 0 .706-.706l-.695-.695 2.538-2.538v14.298Z" fill="#696969"/></svg>