<svg width="20" height="20" fill="none" xmlns="http://www.w3.org/2000/svg"><path d="M16.219 2.549h1.172V3.72h-1.172V2.549ZM18.54 15.44a3.046 3.046 0 0 0-2.301-.454l-3.159.663a1.888 1.888 0 0 0-1.148-2.151l-3.38-1.338a6.06 6.06 0 0 0-4.211-.09L0 13.59v5.803l4.97-1.667L11.016 20 20 18.148l-.152-.76a3.046 3.046 0 0 0-1.307-1.948Zm-7.428 3.342-6.12-2.302-3.818 1.282v-3.339l3.553-1.245a4.883 4.883 0 0 1 3.394.074l3.381 1.338c.35.138.53.553.4.927a.737.737 0 0 1-.389.433.67.67 0 0 1-.527.017l-4.093-1.604-.429 1.093 4.093 1.604c.326.127.672.16 1.007.097l.002.009 4.906-1.03a1.88 1.88 0 0 1 1.418.28c.31.207.547.492.69.826l-7.468 1.54Z" fill="#0061DF"/><path d="M9.972 10.982a2.09 2.09 0 0 0 2.067-.53l3.005-3.005 1.034 1.034 3.09-3.09c.536-.536.832-1.25.832-2.008 0-.759-.296-1.472-.832-2.008l-.543-.543A2.822 2.822 0 0 0 16.617 0c-.76 0-1.473.295-2.009.832l-3.09 3.09 1.034 1.034-5.248 5.248 2.668.778Zm3.204-7.06 2.26-2.261a1.657 1.657 0 0 1 1.18-.49c.446 0 .865.174 1.18.49l.543.542c.315.315.489.734.489 1.18 0 .446-.174.865-.489 1.18l-2.26 2.261-2.903-2.902Zm1.04 2.697L11.21 9.623a.922.922 0 0 1-.91.234l-.768-.224 3.848-3.849.834.835Z" fill="#0061DF"/></svg>