<svg width="18" height="18" fill="none" xmlns="http://www.w3.org/2000/svg"><path d="M12.937 18a5.015 5.015 0 0 1-1.721-.307 18.347 18.347 0 0 1-6.662-4.247A18.345 18.345 0 0 1 .307 6.784a4.979 4.979 0 0 1-.254-2.447A5.096 5.096 0 0 1 2.677.599C3.417.202 4.224 0 5.077 0c.265 0 .495.185.55.445l.883 4.12a.563.563 0 0 1-.152.515L4.849 6.59a14.806 14.806 0 0 0 6.562 6.562l1.509-1.509a.563.563 0 0 1 .515-.152l4.12.883c.26.055.445.285.445.55 0 .852-.202 1.66-.6 2.4a5.117 5.117 0 0 1-3.737 2.624 5 5 0 0 1-.726.053ZM4.627 1.15a3.896 3.896 0 0 0-2.785 1.66 3.875 3.875 0 0 0-.477 3.59A17.06 17.06 0 0 0 11.6 16.635a3.876 3.876 0 0 0 3.59-.477 3.896 3.896 0 0 0 1.66-2.786l-3.351-.718-1.576 1.575a.562.562 0 0 1-.637.112A15.927 15.927 0 0 1 3.66 6.714a.562.562 0 0 1 .111-.637L5.346 4.5 4.628 1.15Z" fill="#fff"/></svg>