<svg width="14" height="13" fill="none" xmlns="http://www.w3.org/2000/svg"><path d="M12.55 3.597a6.083 6.083 0 0 0 1.423-1.477 5.382 5.382 0 0 1-1.641.438A2.805 2.805 0 0 0 13.59.972a6.063 6.063 0 0 1-1.805.71A2.871 2.871 0 0 0 9.68.78a2.87 2.87 0 0 0-2.871 2.871c0 .22.027.438.082.657A8.33 8.33 0 0 1 .957 1.3c-.246.41-.383.902-.383 1.449 0 .984.492 1.86 1.285 2.379C1.395 5.1.93 4.99.547 4.772V4.8c0 1.394.984 2.543 2.297 2.816-.219.055-.492.11-.739.11-.19 0-.355-.028-.546-.055a2.857 2.857 0 0 0 2.68 1.996 5.773 5.773 0 0 1-3.555 1.23c-.247 0-.465-.027-.684-.054 1.258.82 2.762 1.285 4.402 1.285 5.278 0 8.149-4.348 8.149-8.149v-.382Z" fill="#fff"/></svg>